<?xml version="1.0" encoding="UTF-8"?>
<svg id="Capa_1" data-name="Capa 1" xmlns="http://www.w3.org/2000/svg" viewBox="0 0 236 250.83">
  <defs>
    <style>
      .cls-1 {
        fill: #fff;
      }
    </style>
  </defs>
  <g id="OBJECTS">
    <path class="cls-1" d="m161.22,214.82c-4.25,1.91-8.64,3.58-13.16,4.93,4.36-3.91,8.41-8.15,12.18-12.66l-2.32-18.33c-8.8,13.21-20.1,24.44-33.5,32.75v-50.09c11.17.67,22,3.09,32.2,7.09l-1.72-13.57c-9.77-3.2-20-5.16-30.48-5.72v-34.83h54.17c-.45,9.94-2,19.61-4.53,28.84l10.74,8.84c3.81-11.95,6.1-24.61,6.64-37.68h32.19c-1.14,20.07-7.91,38.66-18.74,54.22l9.42,7.75c13.64-19.25,21.69-42.73,21.69-68.06,0-30.46-11.6-58.27-30.62-79.22l.15-.15-4.34-4.32C181.92,15.47,157.21,3.78,130.58.97c-.2-.02-.39-.05-.59-.07-1.63-.16-3.26-.28-4.9-.37-.37-.02-.73-.06-1.1-.08-.69-.04-1.38-.04-2.06-.06-2.64-.21-5.36-.36-8.17-.39-.85-.02-1.65.19-2.43.5-.14,0-.29.02-.43.03-1.64.09-3.27.21-4.9.37-.2.02-.39.05-.59.07-26.63,2.81-51.34,14.49-70.6,33.64l-4.34,4.32.15.15C11.6,60.03,0,87.84,0,118.3s11.6,58.27,30.62,79.22l-.15.15,4.34,4.32c19.26,19.14,43.97,30.82,70.6,33.63.2.02.39.05.59.07,1.63.16,3.26.28,4.9.38.14,0,.29.02.43.03.75.3,1.54.5,2.35.5h.08c2.8-.04,5.52-.18,8.17-.39.69-.02,1.38-.02,2.06-.06.37-.02.73-.06,1.1-.08,1.64-.1,3.27-.21,4.9-.38.2-.02.39-.05.59-.07,11.18-1.18,22.01-3.94,32.25-8.14l-1.61-12.66Zm62.41-102.61h-32.19c-.76-18.39-4.93-35.98-12.01-51.89,6.05-3.71,11.8-7.97,17.18-12.78,15.63,17.35,25.61,39.88,27.03,64.67Zm-35.7-73.23c-4.4,3.88-9.08,7.34-13.97,10.41-6.87-12.28-15.6-23.28-25.9-32.53,14.93,4.43,28.48,12.07,39.87,22.13Zm-63.52-23.9c15.94,9.89,28.96,23.87,38.26,40.44-11.92,5.56-24.85,8.85-38.26,9.65V15.08Zm0,62.3c15.32-.82,30.09-4.54,43.69-10.93,6.12,14.05,9.75,29.56,10.48,45.76h-54.17v-34.83Zm-36.52-60.52c-10.3,9.25-19.03,20.24-25.89,32.51-4.89-3.06-9.56-6.52-13.95-10.39,11.38-10.05,24.92-17.68,39.84-22.12Zm-48.51,30.68c5.37,4.81,11.11,9.06,17.15,12.76-7.07,15.9-11.23,33.49-11.98,51.91H12.36c1.41-24.79,11.39-47.32,27.02-64.67ZM12.36,124.38h32.19c.75,18.41,4.91,36.01,11.98,51.91-6.04,3.7-11.78,7.95-17.15,12.76-15.63-17.35-25.61-39.88-27.02-64.67Zm35.7,73.24c4.39-3.88,9.06-7.33,13.95-10.39,6.86,12.27,15.59,23.26,25.89,32.51-14.92-4.44-28.46-12.07-39.84-22.12Zm63.52,23.9c-15.96-9.89-28.99-23.85-38.29-40.43,11.93-5.57,24.87-8.87,38.29-9.67v50.1Zm0-62.3c-15.32.82-30.12,4.55-43.72,10.94-6.11-14.04-9.73-29.55-10.45-45.78h54.17v34.83Zm0-47.01h-54.17c.73-16.23,4.34-31.73,10.45-45.77,13.6,6.39,28.39,10.12,43.72,10.94v34.83h0Zm0-47.04c-13.41-.8-26.35-4.1-38.29-9.67,9.3-16.58,22.33-30.55,38.29-40.43v50.1Z"/>
    <polygon class="cls-1" points="221.68 202.93 161.63 153.51 171.42 230.67 189.1 220.91 205.61 250.83 220.5 242.62 203.99 212.69 221.68 202.93"/>
  </g>
</svg>